<svg id="Layer_2" data-name="Layer 2" xmlns="http://www.w3.org/2000/svg" width="58" height="58" viewBox="0 0 58 58"><defs><style>.cls-1{fill:#ffb3c7;}.cls-2{fill:#0a0b09;fill-rule:evenodd;}</style></defs><rect class="cls-1" x="7" y="17" width="45" height="25" rx="4.321"/><path class="cls-2" d="M11.413,33.679H13.3V25.4H11.414Zm9.588,0H19.223V25.4H21Zm7.072-5.725h-1.7v.367A2.954,2.954,0,0,0,24.69,27.8a3.02,3.02,0,0,0,0,6.04,2.961,2.961,0,0,0,1.684-.524v.366h1.7Zm16.219,0h1.7v5.725h-1.7v-.366a2.961,2.961,0,0,1-1.684.524,3.02,3.02,0,0,1,0-6.04,2.954,2.954,0,0,1,1.684.524Zm-1.545,1.39a1.474,1.474,0,1,1-1.539,1.473A1.507,1.507,0,0,1,42.747,29.342Zm4.291,2.621a1.084,1.084,0,1,1-.31.759A1.069,1.069,0,0,1,47.038,31.963ZM30.7,27.953V28.7a2.11,2.11,0,0,1,1.664-.745v1.665h-.02c-.672,0-1.64.484-1.64,1.386v2.673H28.961V27.953Zm-4.332,2.862a1.541,1.541,0,1,0-1.538,1.472A1.507,1.507,0,0,0,26.368,30.815ZM36.6,27.8a2.058,2.058,0,0,0-1.75.8v-.644H33.156v5.724h1.712V30.669a1.2,1.2,0,0,1,1.275-1.3c.746,0,1.176.45,1.176,1.285v3.02h1.7v-3.64A2.255,2.255,0,0,0,36.6,27.8ZM16.073,30.1A6.614,6.614,0,0,0,18,25.4H16.155a4.768,4.768,0,0,1-1.9,3.837l-.73.552,2.827,3.89h2.325Z"/></svg>